<svg width="100" height="100" viewBox="0 0 100 100" fill="none" xmlns="http://www.w3.org/2000/svg">
<path d="M69.5937 64.7969C64.2339 64.3489 59.043 62.7036 54.4038 59.9823C49.7646 57.261 45.7953 53.5331 42.7887 49.0734C39.7822 44.6138 37.8149 39.5362 37.0321 34.215C36.2492 28.8938 36.6708 23.4647 38.2656 18.3281C38.3597 18.023 38.3581 17.6962 38.2609 17.392C38.1637 17.0878 37.9756 16.8206 37.722 16.6266C37.4683 16.4325 37.1613 16.3208 36.8422 16.3066C36.5232 16.2923 36.2074 16.3762 35.9375 16.5469C31.1581 19.2998 27.0765 23.1157 24.0088 27.6993C20.9411 32.2829 18.9696 37.5111 18.2469 42.979C17.5242 48.4469 18.0697 54.0078 19.8413 59.231C21.6128 64.4542 24.5629 69.1996 28.4629 73.0996C32.3629 76.9996 37.1082 79.9496 42.3314 81.7212C47.5546 83.4927 53.1155 84.0383 58.5834 83.3156C64.0513 82.5929 69.2795 80.6214 73.8631 77.5536C78.4467 74.4859 82.2627 70.4043 85.0156 65.625C85.1754 65.3554 85.2505 65.0439 85.231 64.731C85.2115 64.4182 85.0983 64.1184 84.9062 63.8707C84.7141 63.623 84.452 63.4388 84.1538 63.342C83.8556 63.2453 83.5353 63.2404 83.2343 63.3281C78.8235 64.6868 74.1927 65.1855 69.5937 64.7969Z" fill="#FCFC07"/>
</svg>
