<svg width="100" height="100" viewBox="0 0 100 100" fill="none" xmlns="http://www.w3.org/2000/svg">
<path d="M63 63C74.0457 63 83 54.0457 83 43C83 31.9543 74.0457 23 63 23C51.9543 23 43 31.9543 43 43C43 54.0457 51.9543 63 63 63Z" fill="#FCFC07"/>
<path d="M63 15L63 19" stroke="#FCFC07" stroke-width="3" stroke-miterlimit="10" stroke-linecap="round"/>
<path d="M91 43L87 43" stroke="#FCFC07" stroke-width="3" stroke-miterlimit="10" stroke-linecap="round"/>
<path d="M83.5 23L80 26.5" stroke="#FCFC07" stroke-width="3" stroke-miterlimit="10" stroke-linecap="round"/>
<path d="M46.5 26.5L43 23" stroke="#FCFC07" stroke-width="3" stroke-miterlimit="10" stroke-linecap="round"/>
<path d="M36.7188 34.2187C41.6994 34.2086 46.5881 35.5599 50.8566 38.1265C55.125 40.6931 58.6109 44.3774 60.9375 48.7812C63.7878 47.1147 66.9838 46.1276 70.2775 45.8965C73.5711 45.6653 76.8737 46.1964 79.9288 47.4485C82.9839 48.7006 85.7093 50.64 87.8935 53.1161C90.0776 55.5922 91.6616 58.5384 92.5225 61.7259C93.3835 64.9134 93.4982 68.2565 92.8578 71.4955C92.2173 74.7345 90.8389 77.7824 88.8297 80.4024C86.8204 83.0224 84.2344 85.144 81.2722 86.6026C78.3102 88.0611 75.0517 88.8173 71.75 88.8125L36.7188 88.9062C29.4667 88.9062 22.5117 86.0254 17.3838 80.8974C12.2559 75.7695 9.375 68.8145 9.375 61.5625C9.375 54.3105 12.2559 47.3555 17.3838 42.2275C22.5117 37.0996 29.4667 34.2187 36.7188 34.2187Z" fill="url(#paint0_linear_12_13727)"/>
<path d="M36.7188 34.7187H36.7197C41.6091 34.7088 46.4084 36.0351 50.5986 38.5546C54.7889 41.0742 58.2111 44.6914 60.4951 49.0146L60.7393 49.4765L61.1895 49.2128C63.9734 47.5851 67.0955 46.6212 70.3125 46.3954C73.5295 46.1697 76.7552 46.6881 79.7393 47.9111C82.7233 49.134 85.3853 51.0287 87.5186 53.4472C89.6517 55.8656 91.1991 58.7431 92.04 61.8564C92.8809 64.9696 92.9927 68.2348 92.3672 71.3984C91.7416 74.562 90.3951 77.5396 88.4326 80.0986C86.4702 82.6573 83.9447 84.7297 81.0518 86.1542C78.1587 87.5788 74.9758 88.3171 71.751 88.3124H71.749L36.7178 88.4052C29.5987 88.405 22.7713 85.5778 17.7373 80.5439C12.7031 75.5097 9.875 68.6818 9.875 61.5624C9.87502 54.4431 12.7031 47.6152 17.7373 42.581C22.7715 37.5468 29.5994 34.7187 36.7188 34.7187Z" stroke="#8FDAFF" stroke-opacity="0.1"/>
<path d="M92.3936 73.1056C95.5864 61.6778 88.9107 49.8253 77.4828 46.6325C66.055 43.4396 54.2026 50.1154 51.0097 61.5432C47.8168 72.9711 54.4926 84.8235 65.9205 88.0164C77.3483 91.2092 89.2007 84.5334 92.3936 73.1056Z" fill="url(#paint1_linear_12_13727)"/>
<path d="M51.4913 61.6778C54.6098 50.5159 66.1864 43.9955 77.3483 47.114C88.5102 50.2326 95.0306 61.8092 91.912 72.9711C88.7935 84.1329 77.2169 90.6534 66.055 87.5348C54.8931 84.4162 48.3727 72.8397 51.4913 61.6778Z" stroke="#8FDAFF" stroke-opacity="0.1"/>
<defs>
<linearGradient id="paint0_linear_12_13727" x1="29.8987" y1="91.2344" x2="62.8549" y2="48.5742" gradientUnits="userSpaceOnUse">
<stop stop-color="#75D1FF" stop-opacity="0.95"/>
<stop offset="1" stop-color="#EBF8FF"/>
</linearGradient>
<linearGradient id="paint1_linear_12_13727" x1="80.4868" y1="59.688" x2="55.5835" y2="81.3482" gradientUnits="userSpaceOnUse">
<stop offset="0.02" stop-color="#8FDAFF"/>
<stop offset="1" stop-color="#E0F5FF" stop-opacity="0"/>
</linearGradient>
</defs>
</svg>
