<svg width="100" height="100" viewBox="0 0 100 100" fill="none" xmlns="http://www.w3.org/2000/svg">
<path d="M78.1249 41.7344C74.8863 41.4724 71.7479 40.4861 68.9416 38.8483C66.1353 37.2104 63.733 34.963 61.9119 32.272C60.0909 29.581 58.8979 26.5152 58.4209 23.3012C57.9439 20.0871 58.1952 16.807 59.1562 13.7031C59.2052 13.5264 59.2013 13.3393 59.145 13.1648C59.0887 12.9903 58.9825 12.8361 58.8395 12.7214C58.6965 12.6067 58.5229 12.5364 58.3404 12.5192C58.1579 12.5021 57.9743 12.5389 57.8124 12.625C54.9061 14.2727 52.4197 16.5696 50.5472 19.3366C48.6748 22.1035 47.4669 25.2656 47.0179 28.5763C46.5688 31.8869 46.8907 35.2566 47.9584 38.4223C49.0261 41.5881 50.8108 44.4643 53.1732 46.8268C55.5356 49.1892 58.4119 50.9738 61.5776 52.0416C64.7434 53.1093 68.113 53.4311 71.4236 52.9821C74.7343 52.533 77.8964 51.3251 80.6633 49.4527C83.4303 47.5802 85.7272 45.0938 87.3749 42.1875C87.4766 42.0248 87.5259 41.8349 87.5163 41.6433C87.5066 41.4517 87.4384 41.2678 87.3209 41.1162C87.2034 40.9646 87.0422 40.8527 86.859 40.7956C86.6759 40.7385 86.4797 40.7389 86.2968 40.7969C83.6574 41.6267 80.8837 41.9448 78.1249 41.7344Z" fill="#FCFC07"/>
<path d="M36.9688 34.2188C41.9415 34.2172 46.8203 35.5725 51.0798 38.1386C55.3392 40.7047 58.8178 44.3844 61.1406 48.7813C63.9938 47.1132 67.1933 46.1258 70.4903 45.896C73.7873 45.6662 77.0929 46.2002 80.1498 47.4563C83.2068 48.7125 85.9328 50.657 88.1156 53.1385C90.2985 55.62 91.8794 58.5717 92.7354 61.764C93.5914 64.9562 93.6994 68.3028 93.0509 71.5436C92.4025 74.7844 91.0152 77.8318 88.9968 80.4489C86.9784 83.066 84.3835 85.1822 81.4139 86.6328C78.4442 88.0834 75.18 88.8293 71.875 88.8125L36.8906 88.9063C29.6386 88.9063 22.6836 86.0254 17.5557 80.8974C12.4277 75.7695 9.54688 68.8145 9.54688 61.5625C9.54687 54.3105 12.4277 47.3555 17.5557 42.2276C22.6836 37.0996 29.6386 34.2188 36.8906 34.2188H36.9688Z" fill="url(#paint0_linear_12_13735)"/>
<path d="M36.8906 34.7188H36.9688C41.8503 34.7172 46.6399 36.0474 50.8213 38.5664C55.0027 41.0855 58.4179 44.6984 60.6982 49.0146L60.9424 49.4766L61.3926 49.2129C64.1793 47.5836 67.3051 46.619 70.5254 46.3945C73.7455 46.1701 76.9742 46.6921 79.96 47.9189C82.9457 49.1459 85.6082 51.045 87.7402 53.4688C89.8723 55.8925 91.4169 58.7756 92.2529 61.8936C93.0889 65.0114 93.1938 68.2801 92.5605 71.4453C91.9272 74.6106 90.572 77.5874 88.6006 80.1436C86.6292 82.6997 84.0948 84.7668 81.1943 86.1836C78.4752 87.5118 75.5031 88.2349 72.4824 88.3066L71.8779 88.3125H71.874L36.8896 88.4053C29.7706 88.405 22.9431 85.5779 17.9092 80.5439C12.875 75.5098 10.0469 68.6819 10.0469 61.5625C10.0469 54.4431 12.875 47.6152 17.9092 42.5811C22.9434 37.5469 29.7712 34.7188 36.8906 34.7188Z" stroke="#8FDAFF" stroke-opacity="0.1"/>
<path d="M92.6485 73.1148C95.8413 61.687 89.1655 49.8346 77.7377 46.6417C66.3099 43.4488 54.4574 50.1246 51.2646 61.5524C48.0717 72.9803 54.7475 84.8327 66.1753 88.0256C77.6032 91.2184 89.4556 84.5427 92.6485 73.1148Z" fill="url(#paint1_linear_12_13735)"/>
<path d="M51.7461 61.687C54.8647 50.5251 66.4413 44.0047 77.6032 47.1233C88.765 50.2418 95.2855 61.8184 92.1669 72.9803C89.0483 84.1422 77.4718 90.6626 66.3099 87.544C55.148 84.4255 48.6276 72.8489 51.7461 61.687Z" stroke="#8FDAFF" stroke-opacity="0.1"/>
<defs>
<linearGradient id="paint0_linear_12_13735" x1="30.0781" y1="91.2344" x2="63.0313" y2="48.5625" gradientUnits="userSpaceOnUse">
<stop stop-color="#75D1FF" stop-opacity="0.95"/>
<stop offset="1" stop-color="#EBF8FF"/>
</linearGradient>
<linearGradient id="paint1_linear_12_13735" x1="80.7417" y1="59.6972" x2="55.8384" y2="81.3574" gradientUnits="userSpaceOnUse">
<stop offset="0.02" stop-color="#8FDAFF"/>
<stop offset="1" stop-color="#E0F5FF" stop-opacity="0"/>
</linearGradient>
</defs>
</svg>
