<svg width="100" height="100" viewBox="0 0 100 100" fill="none" xmlns="http://www.w3.org/2000/svg">
<path d="M64.5312 29.5313C59.5585 29.5297 54.6796 30.885 50.4202 33.4511C46.1607 36.0172 42.6822 39.6969 40.3593 44.0938C37.509 42.4272 34.313 41.4401 31.0193 41.209C27.7257 40.9778 24.4231 41.509 21.368 42.761C18.3129 44.0131 15.5875 45.9525 13.4034 48.4286C11.2192 50.9047 9.63522 53.8509 8.77427 57.0384C7.91332 60.226 7.79861 63.569 8.43906 66.808C9.07951 70.0471 10.4579 73.0949 12.4671 75.7149C14.4764 78.3349 17.0625 80.4565 20.0246 81.9151C22.9867 83.3736 26.2451 84.1298 29.5468 84.125L64.5312 84.2188C71.7832 84.2188 78.7382 81.3379 83.8661 76.2099C88.9941 71.082 91.8749 64.127 91.8749 56.875C91.8749 49.623 88.9941 42.668 83.8661 37.5401C78.7382 32.4121 71.7832 29.5313 64.5312 29.5313Z" fill="url(#paint0_linear_12_13719)"/>
<path d="M64.531 30.0312C71.6504 30.0313 78.4783 32.8594 83.5125 37.8936C88.5466 42.9277 91.3748 49.7556 91.3748 56.875C91.3748 63.9944 88.5466 70.8223 83.5125 75.8564C78.4783 80.8906 71.6504 83.7178 64.531 83.7178L29.5486 83.625H29.5457C26.3211 83.6297 23.1388 82.8912 20.2458 81.4668C17.3527 80.0422 14.8265 77.9692 12.864 75.4102C10.9016 72.8512 9.55497 69.8745 8.92944 66.7109C8.30394 63.5474 8.41574 60.2822 9.25659 57.1689C10.0975 54.0558 11.6449 51.1782 13.7781 48.7598C15.9113 46.3413 18.5734 44.4466 21.5574 43.2236C24.5413 42.0007 27.7672 41.4823 30.9841 41.708C34.2011 41.9338 37.3232 42.8977 40.1072 44.5254L40.5574 44.7891L40.8015 44.3271C43.0819 40.0108 46.497 36.398 50.6785 33.8789C54.8599 31.3599 59.6495 30.0297 64.531 30.0312Z" stroke="#8FDAFF" stroke-opacity="0.1"/>
<path d="M35.3434 83.3328C46.7713 80.1399 53.447 68.2875 50.2542 56.8597C47.0613 45.4318 35.2089 38.7561 23.7811 41.9489C12.3532 45.1418 5.67744 56.9942 8.8703 68.422C12.0632 79.8499 23.9156 86.5257 35.3434 83.3328Z" fill="url(#paint1_linear_12_13719)"/>
<path d="M23.9156 42.4305C35.0775 39.3119 46.6541 45.8323 49.7726 56.9942C52.8912 68.1561 46.3708 79.7327 35.2089 82.8512C24.047 85.9698 12.4704 79.4494 9.35185 68.2875C6.2333 57.1256 12.7537 45.549 23.9156 42.4305Z" stroke="#8FDAFF" stroke-opacity="0.1"/>
<defs>
<linearGradient id="paint0_linear_12_13719" x1="71.4374" y1="86.5469" x2="38.4843" y2="43.875" gradientUnits="userSpaceOnUse">
<stop stop-color="#77D2FF" stop-opacity="0.95"/>
<stop offset="1" stop-color="#EAF8FF"/>
</linearGradient>
<linearGradient id="paint1_linear_12_13719" x1="20.9999" y1="46" x2="44.4999" y2="81.5" gradientUnits="userSpaceOnUse">
<stop offset="0.02" stop-color="#8FD9FF"/>
<stop offset="1" stop-color="#E1F5FF" stop-opacity="0"/>
</linearGradient>
</defs>
</svg>
