<?xml version="1.0" encoding="UTF-8"?>
<svg xmlns="http://www.w3.org/2000/svg" version="1.1" xmlns:xlink="http://www.w3.org/1999/xlink" viewBox="0 0 100 100">
  <!-- Generator: Adobe Illustrator 30.0.0, SVG Export Plug-In . SVG Version: 2.1.1 Build 123)  -->
  <defs>
    <style>
      .st0 {
        fill: none;
        stroke: #8fdaff;
        stroke-opacity: .1;
      }

      .st1 {
        fill: url(#linear-gradient2);
      }

      .st2 {
        fill: url(#linear-gradient1);
      }

      .st3 {
        filter: url(#drop-shadow-1);
      }

      .st4 {
        fill: url(#linear-gradient3);
      }

      .st5 {
        fill: url(#linear-gradient);
      }
    </style>
    <linearGradient id="linear-gradient" x1="74.99" y1="22.44" x2="42.04" y2="65.11" gradientTransform="translate(0 100) scale(1 -1)" gradientUnits="userSpaceOnUse">
      <stop offset="0" stop-color="#77d2ff" stop-opacity=".95"/>
      <stop offset="1" stop-color="#eaf8ff"/>
    </linearGradient>
    <linearGradient id="linear-gradient1" x1="22.86" y1="61.87" x2="46.36" y2="26.37" gradientTransform="translate(0 100) scale(1 -1)" gradientUnits="userSpaceOnUse">
      <stop offset=".02" stop-color="#8fd9ff"/>
      <stop offset="1" stop-color="#e1f5ff" stop-opacity="0"/>
    </linearGradient>
    <filter id="drop-shadow-1" x="-8" y="12" width="109" height="80" filterUnits="userSpaceOnUse">
      <feOffset dx="0" dy="0"/>
      <feGaussianBlur result="blur" stdDeviation="4"/>
      <feFlood flood-color="#000" flood-opacity="1"/>
      <feComposite in2="blur" operator="in"/>
      <feComposite in="SourceGraphic"/>
    </filter>
    <linearGradient id="linear-gradient2" x1="67.95" y1="18.2" x2="34.99" y2="60.87" xlink:href="#linear-gradient"/>
    <linearGradient id="linear-gradient3" x1="15.82" y1="57.63" x2="39.32" y2="22.13" xlink:href="#linear-gradient1"/>
  </defs>
  <g id="Layer_1">
    <path class="st5" d="M68.1,20.54c-4.97,0-9.85,1.35-14.11,3.92-4.26,2.57-7.74,6.25-10.06,10.64-2.85-1.67-6.05-2.65-9.34-2.88-3.29-.23-6.6.3-9.65,1.55-3.06,1.25-5.78,3.19-7.96,5.67-2.18,2.48-3.77,5.42-4.63,8.61-.86,3.19-.98,6.53-.34,9.77.64,3.24,2.02,6.29,4.03,8.91,2.01,2.62,4.6,4.74,7.56,6.2,2.96,1.46,6.22,2.21,9.52,2.21l34.98.09c7.25,0,14.21-2.88,19.33-8.01,5.13-5.13,8.01-12.08,8.01-19.33s-2.88-14.21-8.01-19.33c-5.13-5.13-12.08-8.01-19.33-8.01Z"/>
    <path class="st0" d="M68.1,21.04c7.12,0,13.95,2.83,18.98,7.86,5.03,5.03,7.86,11.86,7.86,18.98s-2.83,13.95-7.86,18.98c-5.03,5.03-11.86,7.86-18.98,7.86l-34.98-.09h0c-3.22,0-6.41-.73-9.3-2.16-2.89-1.42-5.42-3.5-7.38-6.06-1.96-2.56-3.31-5.54-3.93-8.7-.63-3.16-.51-6.43.33-9.54.84-3.11,2.39-5.99,4.52-8.41,2.13-2.42,4.8-4.31,7.78-5.54,2.98-1.22,6.21-1.74,9.43-1.52,3.22.23,6.34,1.19,9.12,2.82l.45.26.24-.46c2.28-4.32,5.7-7.93,9.88-10.45,4.18-2.52,8.97-3.85,13.85-3.85Z"/>
    <path class="st2" d="M38.91,74.34c11.43-3.19,18.1-15.05,14.91-26.47-3.19-11.43-15.05-18.1-26.47-14.91-11.43,3.19-18.1,15.05-14.91,26.47,3.19,11.43,15.05,18.1,26.47,14.91Z"/>
    <path class="st0" d="M27.48,33.44c11.16-3.12,22.74,3.4,25.86,14.56,3.12,11.16-3.4,22.74-14.56,25.86-11.16,3.12-22.74-3.4-25.86-14.56-3.12-11.16,3.4-22.74,14.56-25.86Z"/>
  </g>
  <g id="Layer_2" class="st3">
    <path class="st1" d="M61.06,24.78c-4.97,0-9.85,1.35-14.11,3.92-4.26,2.57-7.74,6.25-10.06,10.64-2.85-1.67-6.05-2.65-9.34-2.88-3.29-.23-6.6.3-9.65,1.55-3.06,1.25-5.78,3.19-7.96,5.67-2.18,2.48-3.77,5.42-4.63,8.61-.86,3.19-.98,6.53-.34,9.77.64,3.24,2.02,6.29,4.03,8.91,2.01,2.62,4.6,4.74,7.56,6.2,2.96,1.46,6.22,2.21,9.52,2.21l34.98.09c7.25,0,14.21-2.88,19.33-8.01,5.13-5.13,8.01-12.08,8.01-19.33s-2.88-14.21-8.01-19.33c-5.13-5.13-12.08-8.01-19.33-8.01Z"/>
    <path class="st0" d="M61.06,25.28c7.12,0,13.95,2.83,18.98,7.86,5.03,5.03,7.86,11.86,7.86,18.98s-2.83,13.95-7.86,18.98c-5.03,5.03-11.86,7.86-18.98,7.86l-34.98-.09h0c-3.22,0-6.41-.73-9.3-2.16-2.89-1.42-5.42-3.5-7.38-6.06-1.96-2.56-3.31-5.54-3.93-8.7-.63-3.16-.51-6.43.33-9.54.84-3.11,2.39-5.99,4.52-8.41,2.13-2.42,4.8-4.31,7.78-5.54,2.98-1.22,6.21-1.74,9.43-1.52,3.22.23,6.34,1.19,9.12,2.82l.45.26.24-.46c2.28-4.32,5.7-7.93,9.88-10.45,4.18-2.52,8.97-3.85,13.85-3.85Z"/>
    <path class="st4" d="M31.87,78.58c11.43-3.19,18.1-15.05,14.91-26.47-3.19-11.43-15.05-18.1-26.47-14.91-11.43,3.19-18.1,15.05-14.91,26.47,3.19,11.43,15.05,18.1,26.47,14.91Z"/>
    <path class="st0" d="M20.44,37.67c11.16-3.12,22.74,3.4,25.86,14.56,3.12,11.16-3.4,22.74-14.56,25.86-11.16,3.12-22.74-3.4-25.86-14.56-3.12-11.16,3.4-22.74,14.56-25.86Z"/>
  </g>
</svg>