<svg width="100" height="100" viewBox="0 0 100 100" fill="none" xmlns="http://www.w3.org/2000/svg">
<path d="M63 5L63 9" stroke="#FCFC07" stroke-width="3" stroke-miterlimit="10" stroke-linecap="round"/>
<path d="M63 53C74.0457 53 83 44.0457 83 33C83 21.9543 74.0457 13 63 13C51.9543 13 43 21.9543 43 33C43 44.0457 51.9543 53 63 53Z" fill="#FCFC07"/>
<path d="M91 33L87 33" stroke="#FCFC07" stroke-width="3" stroke-miterlimit="10" stroke-linecap="round"/>
<path d="M83.5 13L80 16.5" stroke="#FCFC07" stroke-width="3" stroke-miterlimit="10" stroke-linecap="round"/>
<path d="M46.5 16.5L43 13" stroke="#FCFC07" stroke-width="3" stroke-miterlimit="10" stroke-linecap="round"/>
<path d="M36.7188 24.8437C41.6994 24.8336 46.5881 26.1849 50.8566 28.7515C55.125 31.3181 58.6109 35.0024 60.9375 39.4062C63.7878 37.7397 66.9838 36.7526 70.2775 36.5215C73.5711 36.2903 76.8737 36.8214 79.9288 38.0735C82.9839 39.3256 85.7093 41.265 87.8935 43.7411C90.0776 46.2172 91.6616 49.1634 92.5225 52.3509C93.3835 55.5384 93.4982 58.8815 92.8578 62.1205C92.2173 65.3595 90.8389 68.4074 88.8297 71.0274C86.8204 73.6474 84.2344 75.769 81.2722 77.2276C78.3102 78.6861 75.0517 79.4423 71.75 79.4375L36.7188 79.5312C29.4667 79.5312 22.5117 76.6504 17.3838 71.5224C12.2559 66.3945 9.375 59.4395 9.375 52.1875C9.375 44.9355 12.2559 37.9805 17.3838 32.8525C22.5117 27.7246 29.4667 24.8437 36.7188 24.8437Z" fill="url(#paint0_linear_12_13731)"/>
<path d="M36.7188 25.3437H36.7197C41.6091 25.3338 46.4084 26.6601 50.5986 29.1796C54.7889 31.6992 58.2111 35.3164 60.4951 39.6396L60.7393 40.1015L61.1895 39.8378C63.9734 38.2101 67.0955 37.2462 70.3125 37.0204C73.5295 36.7947 76.7552 37.3131 79.7393 38.5361C82.7233 39.759 85.3853 41.6537 87.5186 44.0722C89.6517 46.4906 91.1991 49.3681 92.04 52.4814C92.8809 55.5946 92.9927 58.8598 92.3672 62.0234C91.7416 65.187 90.3951 68.1646 88.4326 70.7236C86.4702 73.2823 83.9447 75.3547 81.0518 76.7792C78.1587 78.2038 74.9758 78.9421 71.751 78.9374H71.749L36.7178 79.0302C29.5987 79.03 22.7713 76.2028 17.7373 71.1689C12.7031 66.1347 9.875 59.3068 9.875 52.1874C9.87502 45.0681 12.7031 38.2402 17.7373 33.206C22.7715 28.1718 29.5994 25.3437 36.7188 25.3437Z" stroke="#8FDAFF" stroke-opacity="0.1"/>
<path d="M92.3958 63.7235C95.5886 52.2957 88.9129 40.4433 77.485 37.2504C66.0572 34.0575 54.2048 40.7333 51.0119 52.1612C47.819 63.589 54.4948 75.4414 65.9227 78.6343C77.3505 81.8271 89.2029 75.1514 92.3958 63.7235Z" fill="url(#paint1_linear_12_13731)"/>
<path d="M51.4935 52.2957C54.612 41.1338 66.1886 34.6134 77.3505 37.732C88.5124 40.8505 95.0328 52.4271 91.9142 63.589C88.7957 74.7509 77.2191 81.2713 66.0572 78.1527C54.8953 75.0342 48.3749 63.4576 51.4935 52.2957Z" stroke="#8FDAFF" stroke-opacity="0.1"/>
<path d="M48.4597 83L38.6922 95.7986" stroke="#0BAEFF" stroke-width="3" stroke-miterlimit="10" stroke-linecap="round"/>
<path d="M38.3669 83L33.328 89.4809" stroke="#0BAEFF" stroke-width="3" stroke-miterlimit="10" stroke-linecap="round"/>
<path d="M58.2271 83L48.4595 95.7986" stroke="#0BAEFF" stroke-width="3" stroke-miterlimit="10" stroke-linecap="round"/>
<path d="M67.6843 83L57.9168 95.7986" stroke="#0BAEFF" stroke-width="3" stroke-miterlimit="10" stroke-linecap="round"/>
<defs>
<linearGradient id="paint0_linear_12_13731" x1="29.8987" y1="81.8594" x2="62.8549" y2="39.1992" gradientUnits="userSpaceOnUse">
<stop stop-color="#75D1FF" stop-opacity="0.95"/>
<stop offset="1" stop-color="#EBF8FF"/>
</linearGradient>
<linearGradient id="paint1_linear_12_13731" x1="80.489" y1="50.3059" x2="55.5857" y2="71.9661" gradientUnits="userSpaceOnUse">
<stop offset="0.02" stop-color="#8FDAFF"/>
<stop offset="1" stop-color="#E0F5FF" stop-opacity="0"/>
</linearGradient>
</defs>
</svg>
