<svg width="100" height="100" viewBox="0 0 100 100" fill="none" xmlns="http://www.w3.org/2000/svg">
<path d="M78.125 32.3594C74.8863 32.0974 71.7479 31.1111 68.9416 29.4733C66.1353 27.8354 63.733 25.588 61.912 22.897C60.0909 20.206 58.8979 17.1402 58.4209 13.9262C57.9439 10.7121 58.1952 7.43198 59.1562 4.3281C59.2052 4.15143 59.2013 3.96426 59.145 3.78978C59.0887 3.61529 58.9825 3.46114 58.8395 3.3464C58.6965 3.23167 58.523 3.16138 58.3404 3.14424C58.1579 3.1271 57.9743 3.16387 57.8124 3.24998C54.9061 4.89771 52.4197 7.19464 50.5472 9.96158C48.6748 12.7285 47.4669 15.8906 47.0179 19.2013C46.5688 22.5119 46.8907 25.8816 47.9584 29.0473C49.0261 32.2131 50.8108 35.0893 53.1732 37.4518C55.5356 39.8142 58.4119 41.5989 61.5776 42.6666C64.7434 43.7343 68.113 44.0561 71.4236 43.6071C74.7343 43.158 77.8964 41.9501 80.6634 40.0777C83.4303 38.2052 85.7272 35.7188 87.3749 32.8125C87.4766 32.6498 87.526 32.4599 87.5163 32.2683C87.5066 32.0767 87.4384 31.8928 87.3209 31.7412C87.2034 31.5896 87.0422 31.4777 86.859 31.4206C86.6759 31.3635 86.4797 31.3639 86.2968 31.4219C83.6574 32.2517 80.8838 32.5698 78.125 32.3594Z" fill="#FCFC07"/>
<path d="M36.9687 24.8438C41.9415 24.8422 46.8203 26.1975 51.0798 28.7636C55.3392 31.3297 58.8178 35.0094 61.1406 39.4063C63.9938 37.7382 67.1933 36.7508 70.4903 36.521C73.7873 36.2912 77.0928 36.8252 80.1498 38.0813C83.2068 39.3375 85.9327 41.282 88.1156 43.7635C90.2985 46.245 91.8794 49.1967 92.7354 52.389C93.5914 55.5812 93.6994 58.9278 93.0509 62.1686C92.4025 65.4094 91.0151 68.4568 88.9968 71.0739C86.9784 73.691 84.3835 75.8072 81.4138 77.2578C78.4442 78.7084 75.1799 79.4543 71.875 79.4375L36.8906 79.5313C29.6386 79.5313 22.6836 76.6504 17.5557 71.5224C12.4277 66.3945 9.54688 59.4395 9.54688 52.1875C9.54687 44.9355 12.4277 37.9805 17.5557 32.8526C22.6836 27.7246 29.6386 24.8438 36.8906 24.8438H36.9687Z" fill="url(#paint0_linear_12_13739)"/>
<path d="M36.8906 25.3438H36.9688C41.8503 25.3422 46.6399 26.6724 50.8213 29.1914C55.0027 31.7105 58.4179 35.3234 60.6982 39.6396L60.9424 40.1016L61.3926 39.8379C64.1793 38.2086 67.3051 37.244 70.5254 37.0195C73.7455 36.7951 76.9742 37.3171 79.96 38.5439C82.9457 39.7709 85.6082 41.67 87.7402 44.0938C89.8723 46.5175 91.4169 49.4006 92.2529 52.5186C93.0889 55.6364 93.1938 58.9051 92.5605 62.0703C91.9272 65.2356 90.572 68.2124 88.6006 70.7686C86.6292 73.3247 84.0948 75.3918 81.1943 76.8086C78.4752 78.1368 75.5031 78.8599 72.4824 78.9316L71.8779 78.9375H71.874L36.8896 79.0303C29.7706 79.03 22.9431 76.2029 17.9092 71.1689C12.875 66.1348 10.0469 59.3069 10.0469 52.1875C10.0469 45.0681 12.875 38.2402 17.9092 33.2061C22.9434 28.1719 29.7712 25.3438 36.8906 25.3438Z" stroke="#8FDAFF" stroke-opacity="0.1"/>
<path d="M92.6504 63.7327C95.8433 52.3049 89.1675 40.4525 77.7397 37.2596C66.3118 34.0668 54.4594 40.7425 51.2665 52.1704C48.0737 63.5982 54.7494 75.4506 66.1773 78.6435C77.6051 81.8364 89.4576 75.1606 92.6504 63.7327Z" fill="url(#paint1_linear_12_13739)"/>
<path d="M51.7481 52.3049C54.8666 41.143 66.4432 34.6226 77.6051 37.7412C88.767 40.8597 95.2874 52.4363 92.1689 63.5982C89.0503 74.7601 77.4737 81.2805 66.3118 78.1619C55.1499 75.0434 48.6295 63.4668 51.7481 52.3049Z" stroke="#8FDAFF" stroke-opacity="0.1"/>
<path d="M48.4597 83L38.6922 95.7986" stroke="#0BAEFF" stroke-width="3" stroke-miterlimit="10" stroke-linecap="round"/>
<path d="M38.3669 83L33.328 89.4809" stroke="#0BAEFF" stroke-width="3" stroke-miterlimit="10" stroke-linecap="round"/>
<path d="M58.2271 83L48.4595 95.7986" stroke="#0BAEFF" stroke-width="3" stroke-miterlimit="10" stroke-linecap="round"/>
<path d="M67.6843 83L57.9168 95.7986" stroke="#0BAEFF" stroke-width="3" stroke-miterlimit="10" stroke-linecap="round"/>
<defs>
<linearGradient id="paint0_linear_12_13739" x1="30.0781" y1="81.8594" x2="63.0313" y2="39.1875" gradientUnits="userSpaceOnUse">
<stop stop-color="#75D1FF" stop-opacity="0.95"/>
<stop offset="1" stop-color="#EBF8FF"/>
</linearGradient>
<linearGradient id="paint1_linear_12_13739" x1="80.7436" y1="50.3151" x2="55.8403" y2="71.9754" gradientUnits="userSpaceOnUse">
<stop offset="0.02" stop-color="#8FDAFF"/>
<stop offset="1" stop-color="#E0F5FF" stop-opacity="0"/>
</linearGradient>
</defs>
</svg>
