<svg width="100" height="100" viewBox="0 0 100 100" fill="none" xmlns="http://www.w3.org/2000/svg">
<path d="M36.9687 15.4688C41.9415 15.4672 46.8203 16.8225 51.0798 19.3886C55.3392 21.9547 58.8178 25.6344 61.1406 30.0313C63.9938 28.3632 67.1933 27.3758 70.4903 27.146C73.7873 26.9162 77.0928 27.4502 80.1498 28.7063C83.2068 29.9625 85.9327 31.907 88.1156 34.3885C90.2985 36.87 91.8794 39.8217 92.7354 43.014C93.5914 46.2062 93.6994 49.5528 93.0509 52.7936C92.4025 56.0344 91.0151 59.0818 88.9968 61.6989C86.9784 64.316 84.3835 66.4322 81.4138 67.8828C78.4442 69.3334 75.1799 70.0793 71.875 70.0625L36.8906 70.1563C29.6386 70.1563 22.6836 67.2754 17.5557 62.1474C12.4277 57.0195 9.54687 50.0645 9.54688 42.8125C9.54687 35.5605 12.4277 28.6055 17.5557 23.4776C22.6836 18.3496 29.6386 15.4688 36.8906 15.4688H36.9687Z" fill="url(#paint0_linear_12_13743)"/>
<path d="M36.8906 15.9688H36.9688C41.8503 15.9672 46.6399 17.2974 50.8213 19.8164C55.0027 22.3355 58.4179 25.9484 60.6982 30.2646L60.9424 30.7266L61.3926 30.4629C64.1793 28.8336 67.3051 27.869 70.5254 27.6445C73.7455 27.4201 76.9742 27.9421 79.96 29.1689C82.9457 30.3959 85.6082 32.295 87.7402 34.7188C89.8723 37.1425 91.4169 40.0256 92.2529 43.1436C93.0889 46.2614 93.1938 49.5301 92.5605 52.6953C91.9272 55.8606 90.572 58.8374 88.6006 61.3936C86.6292 63.9497 84.0948 66.0168 81.1943 67.4336C78.4752 68.7618 75.5031 69.4849 72.4824 69.5566L71.8779 69.5625H71.874L36.8896 69.6553C29.7706 69.655 22.9431 66.8279 17.9092 61.7939C12.875 56.7598 10.0469 49.9319 10.0469 42.8125C10.0469 35.6931 12.875 28.8652 17.9092 23.8311C22.9434 18.7969 29.7712 15.9688 36.8906 15.9688Z" stroke="#8FDAFF" stroke-opacity="0.1"/>
<path d="M92.6526 54.3663C95.8455 42.9384 89.1697 31.086 77.7419 27.8932C66.314 24.7003 54.4616 31.3761 51.2687 42.8039C48.0759 54.2318 54.7516 66.0842 66.1795 69.277C77.6073 72.4699 89.4597 65.7941 92.6526 54.3663Z" fill="url(#paint1_linear_12_13743)"/>
<path d="M51.7503 42.9385C54.8688 31.7766 66.4454 25.2562 77.6073 28.3747C88.7692 31.4933 95.2896 43.0699 92.1711 54.2317C89.0525 65.3936 77.4759 71.914 66.314 68.7955C55.1521 65.6769 48.6317 54.1003 51.7503 42.9385Z" stroke="#8FDAFF" stroke-opacity="0.1"/>
<path d="M60.7656 59.7969L57.4375 78.9375H64.0937L60.7656 93.0781L76.5781 73.1094H69.0937L75.75 59.7969H60.7656Z" fill="#FCFC07"/>
<path d="M40.375 77.125V78.6875" stroke="#0BAEFF" stroke-width="3" stroke-miterlimit="10" stroke-linecap="round"/>
<path d="M31 74V75.5625" stroke="#0BAEFF" stroke-width="3" stroke-miterlimit="10" stroke-linecap="round"/>
<path d="M49.75 74V75.5625" stroke="#0BAEFF" stroke-width="3" stroke-miterlimit="10" stroke-linecap="round"/>
<path d="M49.75 83.375V84.9375" stroke="#0BAEFF" stroke-width="3" stroke-miterlimit="10" stroke-linecap="round"/>
<path d="M31 83.375V84.9375" stroke="#0BAEFF" stroke-width="3" stroke-miterlimit="10" stroke-linecap="round"/>
<path d="M40.375 86.5V88.0625" stroke="#0BAEFF" stroke-width="3" stroke-miterlimit="10" stroke-linecap="round"/>
<defs>
<linearGradient id="paint0_linear_12_13743" x1="30.0781" y1="72.4844" x2="63.0313" y2="29.8125" gradientUnits="userSpaceOnUse">
<stop stop-color="#75D1FF" stop-opacity="0.95"/>
<stop offset="1" stop-color="#EBF8FF"/>
</linearGradient>
<linearGradient id="paint1_linear_12_13743" x1="80.7458" y1="40.9487" x2="55.8425" y2="62.6089" gradientUnits="userSpaceOnUse">
<stop offset="0.02" stop-color="#8FDAFF"/>
<stop offset="1" stop-color="#E0F5FF" stop-opacity="0"/>
</linearGradient>
</defs>
</svg>
