<svg width="100" height="100" viewBox="0 0 100 100" fill="none" xmlns="http://www.w3.org/2000/svg">
<path d="M36.9687 15.4688C41.9415 15.4672 46.8203 16.8225 51.0798 19.3886C55.3392 21.9547 58.8178 25.6344 61.1406 30.0313C63.9938 28.3632 67.1933 27.3758 70.4903 27.146C73.7873 26.9162 77.0928 27.4502 80.1498 28.7063C83.2068 29.9625 85.9327 31.907 88.1156 34.3885C90.2985 36.87 91.8794 39.8217 92.7354 43.014C93.5914 46.2062 93.6994 49.5528 93.0509 52.7936C92.4025 56.0344 91.0151 59.0818 88.9968 61.6989C86.9784 64.316 84.3835 66.4322 81.4138 67.8828C78.4442 69.3334 75.1799 70.0793 71.875 70.0625L36.8906 70.1563C29.6386 70.1563 22.6836 67.2754 17.5557 62.1474C12.4277 57.0195 9.54687 50.0645 9.54688 42.8125C9.54687 35.5605 12.4277 28.6055 17.5557 23.4776C22.6836 18.3496 29.6386 15.4688 36.8906 15.4688H36.9687Z" fill="url(#paint0_linear_12_13726)"/>
<path d="M36.8906 15.9688H36.9688C41.8503 15.9672 46.6399 17.2974 50.8213 19.8164C55.0027 22.3355 58.4179 25.9484 60.6982 30.2646L60.9424 30.7266L61.3926 30.4629C64.1793 28.8336 67.3051 27.869 70.5254 27.6445C73.7455 27.4201 76.9742 27.9421 79.96 29.1689C82.9457 30.3959 85.6082 32.295 87.7402 34.7188C89.8723 37.1425 91.4169 40.0256 92.2529 43.1436C93.0889 46.2614 93.1938 49.5301 92.5605 52.6953C91.9272 55.8606 90.572 58.8374 88.6006 61.3936C86.6292 63.9497 84.0948 66.0168 81.1943 67.4336C78.4752 68.7618 75.5031 69.4849 72.4824 69.5566L71.8779 69.5625H71.874L36.8896 69.6553C29.7706 69.655 22.9431 66.8279 17.9092 61.7939C12.875 56.7598 10.0469 49.9319 10.0469 42.8125C10.0469 35.6931 12.875 28.8652 17.9092 23.8311C22.9434 18.7969 29.7712 15.9688 36.8906 15.9688Z" stroke="#8FDAFF" stroke-opacity="0.1"/>
<path d="M92.6526 54.3663C95.8455 42.9384 89.1697 31.086 77.7419 27.8932C66.314 24.7003 54.4616 31.3761 51.2687 42.8039C48.0759 54.2318 54.7516 66.0842 66.1795 69.277C77.6073 72.4699 89.4597 65.7941 92.6526 54.3663Z" fill="url(#paint1_linear_12_13726)"/>
<path d="M51.7503 42.9385C54.8688 31.7766 66.4454 25.2562 77.6073 28.3747C88.7692 31.4933 95.2896 43.0699 92.1711 54.2317C89.0525 65.3936 77.4759 71.914 66.314 68.7955C55.1521 65.6769 48.6317 54.1003 51.7503 42.9385Z" stroke="#8FDAFF" stroke-opacity="0.1"/>
<path d="M41.4062 85.3594C43.1321 85.3594 44.5312 83.9603 44.5312 82.2344C44.5312 80.5085 43.1321 79.1094 41.4062 79.1094C39.6804 79.1094 38.2812 80.5085 38.2812 82.2344C38.2812 83.9603 39.6804 85.3594 41.4062 85.3594Z" fill="#86D7FE"/>
<path d="M57.0312 89.2656C58.3257 89.2656 59.375 88.2163 59.375 86.9219C59.375 85.6275 58.3257 84.5781 57.0312 84.5781C55.7368 84.5781 54.6875 85.6275 54.6875 86.9219C54.6875 88.2163 55.7368 89.2656 57.0312 89.2656Z" fill="#86D7FE"/>
<path d="M28.9062 78.3281C30.2007 78.3281 31.25 77.2788 31.25 75.9844C31.25 74.69 30.2007 73.6406 28.9062 73.6406C27.6118 73.6406 26.5625 74.69 26.5625 75.9844C26.5625 77.2788 27.6118 78.3281 28.9062 78.3281Z" fill="#86D7FE"/>
<path d="M50.7812 77.5469C51.6442 77.5469 52.3438 76.8473 52.3438 75.9844C52.3438 75.1214 51.6442 74.4219 50.7812 74.4219C49.9183 74.4219 49.2188 75.1214 49.2188 75.9844C49.2188 76.8473 49.9183 77.5469 50.7812 77.5469Z" fill="white"/>
<path d="M72.6562 88.4844C73.5192 88.4844 74.2188 87.7848 74.2188 86.9219C74.2188 86.0589 73.5192 85.3594 72.6562 85.3594C71.7933 85.3594 71.0938 86.0589 71.0938 86.9219C71.0938 87.7848 71.7933 88.4844 72.6562 88.4844Z" fill="white"/>
<path d="M27.3438 88.4844C28.2067 88.4844 28.9062 87.7848 28.9062 86.9219C28.9062 86.0589 28.2067 85.3594 27.3438 85.3594C26.4808 85.3594 25.7812 86.0589 25.7812 86.9219C25.7812 87.7848 26.4808 88.4844 27.3438 88.4844Z" fill="white"/>
<path d="M66.4062 80.6719C68.1321 80.6719 69.5312 79.2728 69.5312 77.5469C69.5312 75.821 68.1321 74.4219 66.4062 74.4219C64.6804 74.4219 63.2812 75.821 63.2812 77.5469C63.2812 79.2728 64.6804 80.6719 66.4062 80.6719Z" fill="#86D7FE"/>
<defs>
<linearGradient id="paint0_linear_12_13726" x1="30.0781" y1="72.4844" x2="63.0313" y2="29.8125" gradientUnits="userSpaceOnUse">
<stop stop-color="#75D1FF" stop-opacity="0.95"/>
<stop offset="1" stop-color="#EBF8FF"/>
</linearGradient>
<linearGradient id="paint1_linear_12_13726" x1="80.7458" y1="40.9487" x2="55.8425" y2="62.6089" gradientUnits="userSpaceOnUse">
<stop offset="0.02" stop-color="#8FDAFF"/>
<stop offset="1" stop-color="#E0F5FF" stop-opacity="0"/>
</linearGradient>
</defs>
</svg>
